<svg xmlns="http://www.w3.org/2000/svg" xmlns:svgjs="http://svgjs.com/svgjs" xmlns:xlink="http://www.w3.org/1999/xlink" width="288" height="288"><svg xmlns="http://www.w3.org/2000/svg" width="288" height="288" viewBox="0 0 512 512"><path fill="#03fff6" d="M480,187.314l5.65723-5.65722A8.00035,8.00035,0,0,0,488,176V160a8.00008,8.00008,0,0,0,8-8V112a7.99916,7.99916,0,0,0-5.16309-7.48l-232-88a7.99823,7.99823,0,0,0-5.67382,0l-232,88A7.99916,7.99916,0,0,0,16,112v40a8.00008,8.00008,0,0,0,8,8v16a8.00035,8.00035,0,0,0,2.34277,5.65674L32,187.31348v185.373l-5.65723,5.65674A8.00035,8.00035,0,0,0,24,384v16a8.00008,8.00008,0,0,0-8,8v80a8.00008,8.00008,0,0,0,8,8H476.68652a19.31355,19.31355,0,0,0,13.65723-32.96973l-3.31445-3.31494A23.83889,23.83889,0,0,1,480,442.74512ZM209.37622,480H32V416H209.37622A23.88212,23.88212,0,0,0,208,424v8a23.89959,23.89959,0,0,0,6.13086,16A23.89959,23.89959,0,0,0,208,464v8A23.88212,23.88212,0,0,0,209.37622,480ZM45.65723,178.34326,40,172.68652V160H88v12.68652l-5.65723,5.65674A8.00035,8.00035,0,0,0,80,184V376a8.00035,8.00035,0,0,0,2.34277,5.65674L88,387.31348V400H40V387.31348l5.65723-5.65674A8.00035,8.00035,0,0,0,48,376V184A8.00035,8.00035,0,0,0,45.65723,178.34326Zm108.68554,3.31348L160,187.31348v185.373l-5.65723,5.65674A8.00035,8.00035,0,0,0,152,384v16H104V384a8.00035,8.00035,0,0,0-2.34277-5.65674L96,372.68652v-185.373l5.65723-5.65674A8.00035,8.00035,0,0,0,104,176V160h48v16A8.00035,8.00035,0,0,0,154.34277,181.65674ZM216,172.686l-5.65723,5.65722A8.00035,8.00035,0,0,0,208,184V352a23.89959,23.89959,0,0,0,6.13086,16A23.89959,23.89959,0,0,0,208,384v8a23.88212,23.88212,0,0,0,1.37622,8H168V387.31348l5.65723-5.65674A8.00035,8.00035,0,0,0,176,376V184a8.00035,8.00035,0,0,0-2.34277-5.65674L168,172.68652V160h48ZM232,480a8.00917,8.00917,0,0,1-8-8v-8a8.00917,8.00917,0,0,1,8-8h10.34131a56.05275,56.05275,0,0,0,14.52026,24Zm50.34277-298.34326L288,187.314V320H232a23.88535,23.88535,0,0,0-8,1.37616V187.314l5.65723-5.65722A8.00035,8.00035,0,0,0,232,176V160h48v16A8.00035,8.00035,0,0,0,282.34277,181.65674ZM232,336h64a8.00917,8.00917,0,0,1,8,8v8a8.00917,8.00917,0,0,1-8,8H232a8.00917,8.00917,0,0,1-8-8v-8A8.00917,8.00917,0,0,1,232,336Zm120-99.4458v23.69873L335.66406,273.8667a87.747,87.747,0,0,0-29.552,48.37512q-1.03089-.481-2.11206-.86566V184a8.00035,8.00035,0,0,0-2.34277-5.65674L296,172.686V160h48v12.68652l-5.65723,5.65674A8.00035,8.00035,0,0,0,336,184v22.11133A36.709,36.709,0,0,0,352,236.5542ZM232,376h64a8.00917,8.00917,0,0,1,8,8v.58057A55.79982,55.79982,0,0,0,256.86157,400H232a8.00917,8.00917,0,0,1-8-8v-8A8.00917,8.00917,0,0,1,232,376Zm0,40h13.41431A55.65816,55.65816,0,0,0,240,440h-8a8.00917,8.00917,0,0,1-8-8v-8A8.00917,8.00917,0,0,1,232,416Zm64,64a40,40,0,1,1,40-40A40.04552,40.04552,0,0,1,296,480Zm180.68652,0H335.13843A55.9402,55.9402,0,0,0,320,389.41431V384a23.89959,23.89959,0,0,0-6.13086-16A23.89959,23.89959,0,0,0,320,352V341.47021a71.80855,71.80855,0,0,1,25.90625-55.312l10.49463-8.74554-20.16162,80.64691a7.99952,7.99952,0,0,0,5.82031,9.70166l32,8a8.00031,8.00031,0,0,0,9.73535-5.9624l9.81543-42.5329,6.8457,19.39667a8.00017,8.00017,0,0,0,11.12207,4.49267l32-16a8.0001,8.0001,0,0,0,3.91211-9.96435l-17.01953-45.3855,7.623,6.35229A71.81029,71.81029,0,0,1,464,341.47021V442.74512a39.73316,39.73316,0,0,0,11.71582,28.28369l3.31348,3.314A3.31388,3.31388,0,0,1,476.68652,480ZM410.34277,181.65674,412.68628,184H355.31372l2.34351-2.34326A8.00035,8.00035,0,0,0,360,176V160h48v16A8.00035,8.00035,0,0,0,410.34277,181.65674ZM432,200v6.11133A20.81128,20.81128,0,0,1,421.93823,224H362.06177A20.81128,20.81128,0,0,1,352,206.11133V200Zm8-16h-8a8.00035,8.00035,0,0,0-2.34277-5.65674L424,172.68652V160h48v12.686l-5.65723,5.65722A8.00035,8.00035,0,0,0,464,184V290.85675a88.22905,88.22905,0,0,0-15.66406-16.99054L432,260.25293V236.5542a36.709,36.709,0,0,0,16-30.44287V192A8.00008,8.00008,0,0,0,440,184Zm-72,72V240h48v16Zm21.94385,16-19.90674,86.26318-16.33594-4.084L374.24585,272Zm16.41992,0h4.09253l19.52417,52.06543L412.52734,332.792l-12.209-34.59418ZM32,144V117.52148L256,32.55615l224,84.96533V144Z" class="color000 svgShape"/><path fill="#03fff6" d="M256 64a32 32 0 1 0 32 32A32.03635 32.03635 0 0 0 256 64zm0 48a16 16 0 1 1 16-16A16.01833 16.01833 0 0 1 256 112zM448 408a32.03635 32.03635 0 0 1-32-32 8 8 0 0 0-16 0 32.03635 32.03635 0 0 1-32 32 8 8 0 0 0 0 16 32.03635 32.03635 0 0 1 32 32 8 8 0 0 0 16 0 32.03635 32.03635 0 0 1 32-32 8 8 0 0 0 0-16zm-40 21.49268A48.39377 48.39377 0 0 0 394.50684 416 48.39377 48.39377 0 0 0 408 402.50732 48.39377 48.39377 0 0 0 421.49316 416 48.39377 48.39377 0 0 0 408 429.49268z" class="color000 svgShape"/></svg></svg>