<svg xmlns="http://www.w3.org/2000/svg" xmlns:xlink="http://www.w3.org/1999/xlink" fill-rule="evenodd" clip-rule="evenodd" image-rendering="optimizeQuality" shape-rendering="geometricPrecision" text-rendering="geometricPrecision" viewBox="0 0 1706.66 1706.66"><defs><linearGradient id="a" x1="1083.75" x2="1465.28" y1="183.09" y2="183.09" gradientUnits="userSpaceOnUse"><stop class="stopColorcc3300 svgShape" offset="0" stop-color="#03fff6"/><stop class="stopColorff6600 svgShape" offset="1" stop-color="#00cfc8"/></linearGradient><linearGradient id="c" x1="697.78" x2="1009.02" y1="1019.86" y2="1019.86" gradientUnits="userSpaceOnUse" xlink:href="#a"/><linearGradient id="d" x1="627.5" x2="1079.3" y1="1329.48" y2="1329.48" gradientUnits="userSpaceOnUse" xlink:href="#a"/><linearGradient id="b" x1="229.18" x2="1218.14" y1="679.09" y2="679.09" gradientUnits="userSpaceOnUse"><stop class="stopColor6600cc svgShape" offset="0" stop-color="#009c97"/><stop class="stopColor9900ff svgShape" offset="1" stop-color="#00fff7"/></linearGradient></defs><path fill="url(#b)" d="M1457.5 1706.66H249.17c-11.11 0-20-9.02-20-20V19.99c0-11.11 8.89-20 20-20h794.58v375.14c0 11.11 9.04 20 20 20h413.75v1291.52c0 10.97-9.03 20-20 20zM557.27 636.25h-67.13c-26.36 0-26.37-40 0-40 21.33 0 91.69-3.46 101.64 3.81 26.38 19.27-10.14 131.47-107.48 131.47-63.61 0-115.28-51.81-115.28-115.41 0-105.56 130.89-155.15 201.11-76.94 17.56 19.54-12.16 46.24-29.72 26.67-45.67-50.91-131.39-18.89-131.39 50.28 0 91.95 129.36 98.78 148.24 20.14zm206.9 95.41c-26.06 0-74.3 6.59-74.3-37.22V537.91c0-43.81 48.24-37.22 74.3-37.22 141.88 0 142.12 230.97 0 230.97zm-34.3-40c62.67 0 100.41-3.72 100.41-85 0-36.39-29.59-66.11-66.11-66.11l-34.3-.01v151.11zm266.39-87.08c22.89 0 64.72 5.83 64.72-31.94s-41.84-31.94-64.72-31.94v63.89zm-20 119.86c-10.97 0-20-8.89-20-20V535c0-41.1 46.46-34.3 72.78-34.3 94.62 0 94.78 143.89 0 143.89-13.09 0-23.88.33-32.78.47v59.39c0 11.11-8.89 20-20 20zm252.5-115.56c24.33 0 69.03 6.22 69.03-34.03s-44.69-34.03-69.03-34.03v68.06zm75.97 122.91c-4.58 0-9.3-1.53-13.05-4.86l-62.92-54.28c0 25.62 6.03 59.14-20 59.14-10.97 0-20-8.89-20-20l-.18-84.61c.2-122.84-14.09-126.35 75.04-126.35 96.58 0 98.94 147.73-1.2 148.06l55.37 47.77c13.98 12.09 5.4 35.14-13.06 35.14zM657.79 1124.1v-76.61c0-93.06 75.7-168.75 168.75-168.75h53.75c93.06 0 168.75 75.7 168.75 168.75v76.61c40.41 10.7 70.28 47.57 70.28 91.31v227.78c-.14 52.08-42.5 94.44-94.59 94.44H681.95c-52.08 0-94.44-42.36-94.44-94.44v-227.78c0-43.73 29.87-80.61 70.28-91.31zm195.56 127.83c-33.34 0-33.18 50.55 0 50.55 33.28 0 33.28-50.55 0-50.55zm-423.48 272.91c-11.11 0-20-9.03-20-20V938.17c0-26.33 40-26.34 40 0v566.67c0 11.11-9.02 20-20 20zm825 0c-10.97 0-20-9.03-20-20V938.17c0-26.3 40-26.3 40 0v566.67c-.01 11.11-9.03 20-20 20z"/><path fill="url(#a)" d="M1083.75 355.28h381.53L1083.75 10.91z"/><path fill="url(#c)" d="M697.78 1047.5v73.48h311.25v-73.47c0-70.97-57.78-128.75-128.75-128.75h-53.75c-70.97 0-128.75 57.78-128.75 128.75z"/><path fill="url(#d)" d="M853.33 1211.94c78.57 0 85.31 109.44 20 128.01v87.26c0 11.12-9.03 20-20 20-11.11 0-20-9.03-20-20v-87.26c-65.33-18.56-58.51-128.01 20-128.01zm-225.83 3.47v227.78c0 30 24.44 54.44 54.44 54.44h342.92c30 0 54.44-24.44 54.44-54.44v-227.78c0-27.65-22.35-53.75-50.28-53.75l-353.22-.35c-27.13 3.06-48.31 26.17-48.31 54.1z"/></svg>