<svg xmlns="http://www.w3.org/2000/svg" fill-rule="evenodd" clip-rule="evenodd" image-rendering="optimizeQuality" shape-rendering="geometricPrecision" text-rendering="geometricPrecision" viewBox="0 0 1706.66 1706.66"><defs><linearGradient id="a" x1="156.57" x2="1550.1" y1="853.8" y2="853.8" gradientUnits="userSpaceOnUse"><stop class="stopColorffb800 svgShape" offset="0" stop-color="#03fff6"/><stop class="stopColorff5329 svgShape" offset="1" stop-color="#009c97"/></linearGradient></defs><path fill="url(#a)" d="M1686.66 1573.63H20.01c-11.04 0-20-8.97-20-20V388.1c0-11.04 8.96-20 20-20H658.8c0-107.13-10.94-95.73 66.17-95.73V153.01c0-11.04 8.96-20 20-20h216.77c11.04 0 20 8.96 20 20v119.36c77.08 0 66.14-11.39 66.14 95.73h638.79c11.04 0 20 8.96 20 20v1165.53c0 11.04-8.96 19.99-20 19.99zM426.27 732.91c-81.98 0-81.99 124.59 0 124.59s81.98-124.59 0-124.59zm-50.01 236.45c-44.11 0-80 35.87-80 79.98v90.42h260.02v-90.42c0-44.11-35.89-79.98-80-79.98l-100.03-.01zM210.85 621.44v518.33h45.42v-90.4c0-66.17 53.82-120 120-120l100.02-.01c66.17 0 120 53.83 120 120v90.41h45.4V621.44H210.86zm215.42 276.05c-56.41 0-102.3-45.89-102.3-102.3 0-56.4 45.89-102.29 102.3-102.29 56.4 0 102.29 45.89 102.29 102.29 0 56.41-45.89 102.3-102.29 102.3zm427.06-517.58c-80.92 0-80.92-122.97 0-122.97 80.94 0 80.94 122.97 0 122.97zm-264.73 933.1H273.3c-26.33 0-26.33-40 0-40h315.3c26.32 0 26.33 40 0 40zm78.83 105.57H194.47c-26.33 0-26.33-40 0-40h472.96c26.32 0 26.34 40-.01 40zm-91.17-238.8H190.84c-11.04 0-20-8.97-20-20V601.45c0-11.04 8.96-20 20-20h470.83c11.04 0 20 8.96 20 20v558.33c0 11.02-8.95 20-20 20h-85.41zm965.99-478.54H904.76c-26.33 0-26.32-40 0-40h637.48c26.33 0 26.32 40 .01 40zm0 225H904.76c-26.33 0-26.32-40 0-40h637.48c26.32 0 26.32 40 .01 40zm0 225H904.76c-26.33 0-26.32-40 0-40h637.48c26.32 0 26.32 40 .01 40zm0 224.98H904.76c-26.33 0-26.32-40 0-40h637.48c26.32 0 26.32 40 .01 40z"/></svg>