<svg xmlns="http://www.w3.org/2000/svg" xmlns:xlink="http://www.w3.org/1999/xlink" viewBox="0 0 64 64"><defs><linearGradient id="a" x1="31.936" x2="32.064" y1="17" y2="47" gradientUnits="userSpaceOnUse"><stop class="stopColor662d91 svgShape" offset="0" stop-color="#009c97"/><stop class="stopColor65c8d0 svgShape" offset="1" stop-color="#00cfc8"/></linearGradient><linearGradient id="b" x1="31.911" x2="32.16" y1="3" y2="60.999" xlink:href="#a"/></defs><path fill="url(#a)" fill-rule="evenodd" d="M17 32a15 15 0 1 0 15-15 15.007 15.007 0 0 0-15 15Zm11.209-12.438c-.135.209-.266.429-.393.662A15.789 15.789 0 0 0 26.663 23h-4.04a13.009 13.009 0 0 1 5.586-3.438ZM27.414 31a29.369 29.369 0 0 1 .76-6h7.652a29.369 29.369 0 0 1 .76 6Zm9.172 2a29.369 29.369 0 0 1-.76 6h-7.652a29.369 29.369 0 0 1-.76-6Zm-15.54-8h5.082a31.951 31.951 0 0 0-.714 6h-6.376a12.91 12.91 0 0 1 2.008-6Zm0 14a12.921 12.921 0 0 1-2.008-6h6.376a31.952 31.952 0 0 0 .714 6Zm1.577 2h4.04a15.789 15.789 0 0 0 1.153 2.776c.127.233.258.453.393.662A13.006 13.006 0 0 1 22.623 41Zm11.806 1.818a5.826 5.826 0 0 1-1.3 1.7 1.561 1.561 0 0 1-2.258 0 5.826 5.826 0 0 1-1.3-1.7 12.963 12.963 0 0 1-.8-1.818h6.464a12.956 12.956 0 0 1-.806 1.818Zm1.362 1.62c.135-.209.266-.429.393-.662A15.785 15.785 0 0 0 37.337 41h4.04a13.01 13.01 0 0 1-5.586 3.438ZM42.954 39h-5.082a31.952 31.952 0 0 0 .714-6h6.376a12.911 12.911 0 0 1-2.008 6Zm0-14a12.922 12.922 0 0 1 2.008 6h-6.376a31.951 31.951 0 0 0-.714-6Zm-1.577-2h-4.04a15.785 15.785 0 0 0-1.153-2.776 10.328 10.328 0 0 0-.393-.662A13.005 13.005 0 0 1 41.377 23Zm-6.948-1.818a12.953 12.953 0 0 1 .8 1.818h-6.461a12.96 12.96 0 0 1 .8-1.818 5.826 5.826 0 0 1 1.3-1.7 1.561 1.561 0 0 1 2.258 0 5.826 5.826 0 0 1 1.303 1.7Z"/><path fill="url(#b)" fill-rule="evenodd" d="m56.235 8.823-24-5.795a1.008 1.008 0 0 0-.47 0l-24 5.795A1 1 0 0 0 7 9.795v28a7.384 7.384 0 0 0 1.082 3.526 25.626 25.626 0 0 0 4.4 5.393c7.126 6.974 19 14.142 19 14.142a1 1 0 0 0 1.034 0s11.873-7.168 19-14.142a25.625 25.625 0 0 0 4.4-5.393A7.384 7.384 0 0 0 57 37.795v-28a1 1 0 0 0-.765-.972ZM55 37.795a5.412 5.412 0 0 1-.826 2.548 23.564 23.564 0 0 1-4.058 4.941C44.006 51.266 34.329 57.387 32 58.827c-2.33-1.44-12.006-7.561-18.116-13.543a23.562 23.562 0 0 1-4.058-4.941A5.413 5.413 0 0 1 9 37.795V16.781l23-5.75 23 5.75Zm0-23.076L32.243 9.03a1 1 0 0 0-.486 0L9 14.719v-4.137l23-5.553 23 5.553Z"/></svg>