<svg xmlns="http://www.w3.org/2000/svg" xmlns:xlink="http://www.w3.org/1999/xlink" viewBox="0 0 32 32"><defs><linearGradient id="a"><stop class="stopColor000092 svgShape" offset="0" stop-color="#009c97"/><stop class="stopColorff00f3 svgShape" offset="1" stop-color="#03fff6"/></linearGradient><linearGradient id="b" x1="1" x2="28" y1="16" y2="16" gradientUnits="userSpaceOnUse" xlink:href="#a"/></defs><path fill="url(#b)" fill-rule="evenodd" d="M15.5 1v2.025C8.726 3.285 3.284 8.726 3.025 15.5H1v1h2.025c.26 6.773 5.702 12.216 12.475 12.475V31h1v-2.025c6.773-.26 12.216-5.702 12.475-12.475H31v-1h-2.025C28.716 8.726 23.274 3.284 16.5 3.025V1h-1zm0 3.025V6h1V4.025A11.972 11.972 0 0 1 27.975 15.5H26v1h1.975A11.972 11.972 0 0 1 16.5 27.975V26h-1v1.975A11.972 11.972 0 0 1 4.025 16.5H6v-1H4.025A11.972 11.972 0 0 1 15.5 4.025zM15.986 7c-2.27 0-4.119 1.864-4.119 4.145 0 1.268.585 2.393 1.485 3.154-2.868.24-5.118 2.655-5.118 5.6v3.583a.5.5 0 0 0 .5.5h2.774a.5.5 0 0 0 .263 0h8.456a.5.5 0 0 0 .263 0h2.776a.5.5 0 0 0 .5-.5v-3.584c0-2.953-2.264-5.372-5.145-5.6.899-.76 1.483-1.885 1.483-3.153 0-2.28-1.847-4.145-4.118-4.145zm0 1a3.124 3.124 0 0 1 3.118 3.145c0 1.71-1.341 3.08-3.022 3.132h-.191a3.119 3.119 0 0 1-3.024-3.132A3.125 3.125 0 0 1 15.987 8zm-2.166 7.277h2.073c.032.001.061.01.093.01s.062-.009.094-.01h2.1c2.547 0 4.586 2.051 4.586 4.621v3.084h-1.907v-2.794a.5.5 0 0 0-.507-.506.5.5 0 0 0-.493.506v2.794h-7.718v-2.794a.5.5 0 0 0-.508-.506.5.5 0 0 0-.492.506v2.794H9.234v-3.084c0-2.57 2.039-4.62 4.586-4.62z" color="#000" font-family="sans-serif" font-weight="400" overflow="visible" style="line-height:normal;text-indent:0;text-align:start;text-decoration-line:none;text-decoration-style:solid;text-decoration-color:#000;text-transform:none;block-progression:tb;isolation:auto;mix-blend-mode:normal"/></svg>