<svg xmlns="http://www.w3.org/2000/svg" data-name="Layer 1" viewBox="0 0 512 512"><path fill="#03fff6" d="M154.932 401.011 133.08 379.16a100.227 100.227 0 0 1-29.061-78.558l91.924-91.924a100.227 100.227 0 0 1 78.558 29.06l21.851 21.852 67.315 72.507L228.054 477.89Z" class="colorfbbf7d svgShape"/><path fill="#03fff6" d="m296.353 259.59 96.167 96.166a25 25 0 0 1 0 35.356 25 25 0 0 1-35.356 0l-53.74-53.74m0 0 53.74 53.74a25 25 0 0 1 0 35.355 25 25 0 0 1-35.355 0l-53.74-53.74" class="colorfbbf7d svgShape"/><path fill="#03fff6" d="m303.424 337.372 53.74 53.74a25 25 0 0 1 0 35.355 25 25 0 0 1-35.355 0l-53.74-53.74" class="colorfbbf7d svgShape"/><path fill="#00cfc8" d="M357.164 411.467a25 25 0 0 1-35.355 0l-46.24-46.24a10.607 10.607 0 0 0 0 15l46.24 46.24a25 25 0 0 0 35.355 0 24.992 24.992 0 0 0 6.17-25.178 24.883 24.883 0 0 1-6.17 10.178zm35.36-35.355a25 25 0 0 1-35.355 0l-46.24-46.24a10.607 10.607 0 0 0 0 15l46.24 46.24a25 25 0 0 0 35.356 0 24.992 24.992 0 0 0 6.17-25.178 24.883 24.883 0 0 1-6.17 10.178z" class="colorf9b15e svgShape"/><path fill="#03fff6" d="m268.069 372.727 53.74 53.74a25 25 0 0 1 0 35.355 25 25 0 0 1-35.355 0l-53.74-53.74" class="colorfbbf7d svgShape"/><path fill="#00cfc8" d="M321.809 446.822a25 25 0 0 1-35.355 0l-46.24-46.24a10.607 10.607 0 0 0 0 15l46.24 46.24a25 25 0 0 0 35.355 0 24.991 24.991 0 0 0 6.17-25.177 24.88 24.88 0 0 1-6.17 10.177Z" class="colorf9b15e svgShape"/><path fill="#03fff6" d="m232.714 408.082 53.74 53.74a25 25 0 0 1 0 35.356 25 25 0 0 1-35.356 0l-96.166-96.167" class="colorfbbf7d svgShape"/><path fill="#00cfc8" d="M286.454 482.178a25 25 0 0 1-35.356 0l-79.666-79.667-16.5-1.5 96.166 96.167a25 25 0 0 0 35.356 0A24.992 24.992 0 0 0 292.623 472a24.883 24.883 0 0 1-6.17 10.178Z" class="colorf9b15e svgShape"/><path fill="#23b5b0" d="m192.76 211.86-85.56 85.56a29.984 29.984 0 0 1-42.42 0l-7.94-7.94L7.5 240.14 116.73 95.67l76.03 73.76a29.212 29.212 0 0 1 2.51 2.86 29.984 29.984 0 0 1-2.51 39.57Z" class="color2370b5 svgShape"/><path fill="#aefdfa" d="M235.297 445.358a25 25 0 0 1 0 35.356l-16.464 16.464a25 25 0 0 1-35.356 0 25 25 0 0 1 0-35.355l16.465-16.465a25 25 0 0 1 35.355 0ZM199.941 410.002a25 25 0 0 1 0 35.356l-16.464 16.464a25 25 0 0 1-35.355 0 25 25 0 0 1 0-35.355l16.464-16.465a25 25 0 0 1 35.355 0Z" class="colorfdd8ae svgShape"/><path fill="#aefdfa" d="M164.586 374.647a25 25 0 0 1 0 35.355l-16.464 16.465a25 25 0 0 1-35.355 0 25 25 0 0 1 0-35.356l16.464-16.464a25 25 0 0 1 35.355 0Z" class="colorfdd8ae svgShape"/><path fill="#aefdfa" d="M129.231 339.292a25 25 0 0 1 0 35.356l-16.464 16.464a25 25 0 0 1-35.356 0 25 25 0 0 1 0-35.355l16.465-16.465a25 25 0 0 1 35.355 0ZM312.102 200.475h-19.09a45.694 45.694 0 0 0-34.053 15.226l-59.311 66.293a15.798 15.798 0 0 0 .603 21.704 35.056 35.056 0 0 0 49.576 0l45.317-45.317 81.978 81.978a103.543 103.543 0 0 0 41.402-51.49l-106.422-88.394Z" class="colorfdd8ae svgShape"/><path fill="#2283e4" d="m504.5 240.14-48.72 48.72-8.56 8.56a29.984 29.984 0 0 1-42.42 0l-85.56-85.56a29.997 29.997 0 0 1 0-42.43l9.78-9.86 63.44-63.9Z" class="colore4222e svgShape"/><path fill="#1e2022" d="m455.78 288.86-8.56 8.56a29.984 29.984 0 0 1-42.42 0l-85.56-85.56a29.997 29.997 0 0 1 0-42.43l9.78-9.86.11-.03Z" class="colorc0232c svgShape"/><path fill="#10aea9" d="m192.76 211.86-85.56 85.56a29.984 29.984 0 0 1-42.42 0l-7.94-7.94 126.49-129.14 11.94 11.95a29.984 29.984 0 0 1-2.51 39.57Z" class="color1067ae svgShape"/><circle cx="256" cy="113.772" r="106.272" fill="#fff" class="colore1e1e3 svgShape"/><path fill="#c5cccc" d="M256 7.5a106.523 106.523 0 0 0-18.036 1.538 106.277 106.277 0 0 1 0 209.47A106.274 106.274 0 1 0 256 7.5Z" class="colorc8c5cc svgShape"/><path fill="#768181" d="M256 227.545a113.772 113.772 0 1 1 113.772-113.773A113.901 113.901 0 0 1 256 227.545ZM256 15a98.772 98.772 0 1 0 98.772 98.772A98.884 98.884 0 0 0 256 15Z" class="color787681 svgShape"/><path fill="#009c97" d="M256 178.11a92.29 92.29 0 0 1-32-23.993c-12.602-14.825-19.26-32.563-19.26-51.303v-33.27a88.21 88.21 0 0 0 39.073-11.44A80.485 80.485 0 0 0 256 49.433a80.485 80.485 0 0 0 12.187 8.67 88.211 88.211 0 0 0 39.073 11.44v33.27c0 18.74-6.658 36.478-19.255 51.298A92.303 92.303 0 0 1 256 178.11Z" class="color24b378 svgShape"/></svg>